<svg xmlns="http://www.w3.org/2000/svg" version="1.1" xmlns:xlink="http://www.w3.org/1999/xlink" xmlns:svgjs="http://svgjs.dev/svgjs" width="1500" height="1500" viewBox="0 0 1500 1500"><rect width="1500" height="1500" fill="#091f5b"></rect><g transform="matrix(0.6666666666666666,0,0,0.6666666666666666,250.0006562499999,187.66666666666674)"><svg viewBox="0 0 320 360" data-background-color="#091f5b" preserveAspectRatio="xMidYMid meet" height="1687" width="1500" xmlns="http://www.w3.org/2000/svg" xmlns:xlink="http://www.w3.org/1999/xlink"><g id="tight-bounds" transform="matrix(1,0,0,1,-0.00020999999998139174,0)"><svg viewBox="0 0 320 360" height="360" width="320"><g><svg></svg></g><g><svg viewBox="0 0 320 360" height="360" width="320"><g><path transform="translate(-17.77778,2.22222) scale(3.55556,3.55556)" d="M95 52c0-12.871-5.692-24.431-14.682-32.318-7.887-8.99-19.447-14.682-32.318-14.682-23.71 0-43 19.29-43 43 0 12.868 5.69 24.426 14.677 32.313 7.887 8.993 19.449 14.687 32.323 14.687 0.084 0 0.166-0.006 0.25-0.006 0.084 0 0.166 0.006 0.25 0.006 23.472 0 42.5-19.028 42.5-42.5 0-0.084-0.006-0.166-0.006-0.25 0-0.084 0.006-0.166 0.006-0.25zM21.828 73.371c-4.245-5.978-6.77-13.259-6.822-21.121 0.135-20.511 16.732-37.109 37.244-37.244 7.862 0.052 15.144 2.577 21.121 6.822 6.853 6.645 11.129 15.93 11.129 26.172 0 20.126-16.374 36.5-36.5 36.5-10.242 0-19.527-4.276-26.172-11.129zM6 48c0-23.159 18.841-42 42-42 9.858 0 18.926 3.422 26.1 9.13-6.463-3.888-14.024-6.13-22.1-6.13-23.71 0-43 19.29-43 43 0 8.074 2.241 15.633 6.127 22.095-5.706-7.172-9.127-16.239-9.127-26.095zM52 89c-10.08 0-19.227-4.055-25.905-10.615 6.174 4.469 13.743 7.115 21.905 7.115 20.678 0 37.5-16.822 37.5-37.5 0-8.162-2.646-15.731-7.115-21.905 6.56 6.678 10.615 15.825 10.615 25.905 0 20.402-16.598 37-37 37z" fill="#fff9ef" fill-rule="nonzero" stroke="none" stroke-width="1" stroke-linecap="butt" stroke-linejoin="miter" stroke-miterlimit="10" stroke-dasharray="" stroke-dashoffset="0" font-family="none" font-weight="none" font-size="none" text-anchor="none" style="mix-blend-mode: normal" data-fill-palette-color="tertiary"></path></g><g transform="matrix(1,0,0,1,64,148.77674369274538)"><svg viewBox="0 0 192 62.446512614509246" height="62.446512614509246" width="192"><g><svg viewBox="0 0 192 62.446512614509246" height="62.446512614509246" width="192"><g><svg viewBox="0 0 192 62.446512614509246" height="62.446512614509246" width="192"><g transform="matrix(1,0,0,1,0,38.59445002560455)"><svg viewBox="0 0 192 23.852062588904694" height="23.852062588904694" width="192"><g id="textblocktransform"><svg viewBox="0 0 192 23.852062588904694" height="23.852062588904694" width="192" id="textblock"><g><svg viewBox="0 0 192 23.852062588904694" height="23.852062588904694" width="192"><g transform="matrix(1,0,0,1,0,0)"><svg width="192" viewBox="5 -39.05 316.33 39.3" height="23.852062588904694" data-palette-color="#fff9ef"><path d="M6.95 0L6.95 0Q6.15 0 5.58-0.58 5-1.15 5-1.95L5-1.95 5-37.1Q5-37.9 5.58-38.48 6.15-39.05 6.95-39.05L6.95-39.05Q7.75-39.05 8.33-38.48 8.9-37.9 8.9-37.1L8.9-37.1 8.9-20.1 27.15-38.35Q27.55-38.75 27.9-38.9 28.25-39.05 28.7-39.05L28.7-39.05Q29.6-39.05 30.05-38.5 30.5-37.95 30.48-37.18 30.45-36.4 29.85-35.7L29.85-35.7 16.15-22 30-3.1Q30.45-2.45 30.38-1.73 30.3-1 29.8-0.5 29.3 0 28.6 0L28.6 0Q27.5 0 26.95-0.85L26.95-0.85 13.35-19.25 8.9-14.75 8.9-1.95Q8.9-1.15 8.33-0.58 7.75 0 6.95 0ZM46.7 0.25L46.7 0.25Q42.7 0.25 39.55-1.55 36.4-3.35 34.6-6.5 32.8-9.65 32.8-13.65L32.8-13.65Q32.8-17.7 34.6-20.85 36.4-24 39.55-25.8 42.7-27.6 46.7-27.6L46.7-27.6Q50.7-27.6 53.82-25.8 56.95-24 58.75-20.85 60.55-17.7 60.6-13.65L60.6-13.65Q60.6-9.65 58.77-6.5 56.95-3.35 53.82-1.55 50.7 0.25 46.7 0.25ZM46.7-3.25L46.7-3.25Q49.6-3.25 51.9-4.6 54.2-5.95 55.5-8.3 56.8-10.65 56.8-13.65L56.8-13.65Q56.8-16.65 55.5-19.03 54.2-21.4 51.9-22.75 49.6-24.1 46.7-24.1L46.7-24.1Q43.8-24.1 41.5-22.75 39.2-21.4 37.87-19.03 36.55-16.65 36.55-13.65L36.55-13.65Q36.55-10.65 37.87-8.3 39.2-5.95 41.5-4.6 43.8-3.25 46.7-3.25ZM80.14 0.25L80.14 0.25Q76.3 0.25 73.25-1.58 70.19-3.4 68.42-6.55 66.64-9.7 66.64-13.65L66.64-13.65Q66.64-17.65 68.47-20.8 70.3-23.95 73.44-25.78 76.59-27.6 80.55-27.6L80.55-27.6Q84.5-27.6 87.62-25.78 90.75-23.95 92.57-20.8 94.39-17.65 94.44-13.65L94.44-13.65 92.89-12.45Q92.89-8.85 91.22-5.98 89.55-3.1 86.67-1.43 83.8 0.25 80.14 0.25ZM80.55-3.25L80.55-3.25Q83.44-3.25 85.72-4.6 88-5.95 89.32-8.33 90.64-10.7 90.64-13.65L90.64-13.65Q90.64-16.65 89.32-19 88-21.35 85.72-22.73 83.44-24.1 80.55-24.1L80.55-24.1Q77.69-24.1 75.39-22.73 73.09-21.35 71.75-19 70.39-16.65 70.39-13.65L70.39-13.65Q70.39-10.7 71.75-8.33 73.09-5.95 75.39-4.6 77.69-3.25 80.55-3.25ZM92.5 0L92.5 0Q91.64 0 91.09-0.53 90.55-1.05 90.55-1.9L90.55-1.9 90.55-10.45 91.5-14.4 94.44-13.65 94.44-1.9Q94.44-1.05 93.89-0.53 93.34 0 92.5 0ZM108.49 0L107.84 0Q105.84 0 104.27-1.1 102.69-2.2 101.82-4.15 100.94-6.1 100.94-8.65L100.94-8.65 100.94-37.15Q100.94-38 101.47-38.53 101.99-39.05 102.84-39.05L102.84-39.05Q103.69-39.05 104.22-38.53 104.74-38 104.74-37.15L104.74-37.15 104.74-8.65Q104.74-6.5 105.62-5.15 106.49-3.8 107.84-3.8L107.84-3.8 109.09-3.8Q109.84-3.8 110.29-3.28 110.74-2.75 110.74-1.9L110.74-1.9Q110.74-1.05 110.12-0.53 109.49 0 108.49 0L108.49 0ZM126.59 0.25L126.59 0.25Q122.74 0.25 119.69-1.58 116.64-3.4 114.86-6.55 113.09-9.7 113.09-13.65L113.09-13.65Q113.09-17.65 114.91-20.8 116.74-23.95 119.89-25.78 123.04-27.6 126.99-27.6L126.99-27.6Q130.94-27.6 134.06-25.78 137.19-23.95 139.01-20.8 140.84-17.65 140.89-13.65L140.89-13.65 139.34-12.45Q139.34-8.85 137.66-5.98 135.99-3.1 133.12-1.43 130.24 0.25 126.59 0.25ZM126.99-3.25L126.99-3.25Q129.89-3.25 132.16-4.6 134.44-5.95 135.76-8.33 137.09-10.7 137.09-13.65L137.09-13.65Q137.09-16.65 135.76-19 134.44-21.35 132.16-22.73 129.89-24.1 126.99-24.1L126.99-24.1Q124.14-24.1 121.84-22.73 119.54-21.35 118.19-19 116.84-16.65 116.84-13.65L116.84-13.65Q116.84-10.7 118.19-8.33 119.54-5.95 121.84-4.6 124.14-3.25 126.99-3.25ZM138.94 0L138.94 0Q138.09 0 137.54-0.53 136.99-1.05 136.99-1.9L136.99-1.9 136.99-10.45 137.94-14.4 140.89-13.65 140.89-1.9Q140.89-1.05 140.34-0.53 139.79 0 138.94 0ZM165.48 0L165.48 0Q164.69 0 164.11-0.58 163.53-1.15 163.53-1.95L163.53-1.95 163.53-37.1Q163.53-37.95 164.11-38.5 164.69-39.05 165.48-39.05L165.48-39.05Q166.69-39.05 167.23-38.05L167.23-38.05 184.09-4.55 182.38-4.55 198.94-38.05Q199.53-39.05 200.69-39.05L200.69-39.05Q201.49-39.05 202.03-38.5 202.59-37.95 202.59-37.1L202.59-37.1 202.59-1.95Q202.59-1.15 202.03-0.58 201.49 0 200.69 0L200.69 0Q199.84 0 199.26-0.58 198.69-1.15 198.69-1.95L198.69-1.95 198.69-32.05 199.53-32 184.78-1.85Q184.24-0.9 183.09-0.9L183.09-0.9Q181.84-0.9 181.28-2.1L181.28-2.1 166.44-31.8 167.44-32.05 167.44-1.95Q167.44-1.15 166.86-0.58 166.28 0 165.48 0ZM224.13 0.25L224.13 0.25Q220.28 0.25 217.23-1.58 214.18-3.4 212.41-6.55 210.63-9.7 210.63-13.65L210.63-13.65Q210.63-17.65 212.46-20.8 214.28-23.95 217.43-25.78 220.58-27.6 224.53-27.6L224.53-27.6Q228.48-27.6 231.61-25.78 234.73-23.95 236.56-20.8 238.38-17.65 238.43-13.65L238.43-13.65 236.88-12.45Q236.88-8.85 235.21-5.98 233.53-3.1 230.66-1.43 227.78 0.25 224.13 0.25ZM224.53-3.25L224.53-3.25Q227.43-3.25 229.71-4.6 231.98-5.95 233.31-8.33 234.63-10.7 234.63-13.65L234.63-13.65Q234.63-16.65 233.31-19 231.98-21.35 229.71-22.73 227.43-24.1 224.53-24.1L224.53-24.1Q221.68-24.1 219.38-22.73 217.08-21.35 215.73-19 214.38-16.65 214.38-13.65L214.38-13.65Q214.38-10.7 215.73-8.33 217.08-5.95 219.38-4.6 221.68-3.25 224.53-3.25ZM236.48 0L236.48 0Q235.63 0 235.08-0.53 234.53-1.05 234.53-1.9L234.53-1.9 234.53-10.45 235.48-14.4 238.43-13.65 238.43-1.9Q238.43-1.05 237.88-0.53 237.33 0 236.48 0ZM248.38 0L248.38 0Q247.58 0 247-0.58 246.43-1.15 246.43-1.95L246.43-1.95 246.43-37.1Q246.43-37.95 247-38.5 247.58-39.05 248.38-39.05L248.38-39.05Q249.58-39.05 250.13-38.05L250.13-38.05 266.98-4.55 265.28-4.55 281.83-38.05Q282.43-39.05 283.58-39.05L283.58-39.05Q284.38-39.05 284.93-38.5 285.48-37.95 285.48-37.1L285.48-37.1 285.48-1.95Q285.48-1.15 284.93-0.58 284.38 0 283.58 0L283.58 0Q282.73 0 282.16-0.58 281.58-1.15 281.58-1.95L281.58-1.95 281.58-32.05 282.43-32 267.68-1.85Q267.13-0.9 265.98-0.9L265.98-0.9Q264.73-0.9 264.18-2.1L264.18-2.1 249.33-31.8 250.33-32.05 250.33-1.95Q250.33-1.15 249.75-0.58 249.18 0 248.38 0ZM307.03 0.25L307.03 0.25Q303.18 0.25 300.13-1.58 297.08-3.4 295.3-6.55 293.53-9.7 293.53-13.65L293.53-13.65Q293.53-17.65 295.35-20.8 297.18-23.95 300.33-25.78 303.48-27.6 307.43-27.6L307.43-27.6Q311.38-27.6 314.5-25.78 317.63-23.95 319.45-20.8 321.28-17.65 321.33-13.65L321.33-13.65 319.78-12.45Q319.78-8.85 318.1-5.98 316.43-3.1 313.55-1.43 310.68 0.25 307.03 0.25ZM307.43-3.25L307.43-3.25Q310.33-3.25 312.6-4.6 314.88-5.95 316.2-8.33 317.53-10.7 317.53-13.65L317.53-13.65Q317.53-16.65 316.2-19 314.88-21.35 312.6-22.73 310.33-24.1 307.43-24.1L307.43-24.1Q304.58-24.1 302.28-22.73 299.98-21.35 298.63-19 297.28-16.65 297.28-13.65L297.28-13.65Q297.28-10.7 298.63-8.33 299.98-5.95 302.28-4.6 304.58-3.25 307.43-3.25ZM319.38 0L319.38 0Q318.53 0 317.98-0.53 317.43-1.05 317.43-1.9L317.43-1.9 317.43-10.45 318.38-14.4 321.33-13.65 321.33-1.9Q321.33-1.05 320.78-0.53 320.23 0 319.38 0Z" opacity="1" transform="matrix(1,0,0,1,0,0)" fill="#fff9ef" class="wordmark-text-0" data-fill-palette-color="primary" id="text-0"></path></svg></g></svg></g></svg></g></svg></g><g transform="matrix(1,0,0,1,81.21128444908595,0)"><svg viewBox="0 0 29.577431101828086 32.96355049786629" height="32.96355049786629" width="29.577431101828086"><g><svg xmlns="http://www.w3.org/2000/svg" xmlns:xlink="http://www.w3.org/1999/xlink" version="1.1" x="0" y="0" viewBox="12.650641644397348 8.374 74.70009319077388 83.25200000000002" enable-background="new 0 0 100 100" xml:space="preserve" height="32.96355049786629" width="29.577431101828086" class="icon-icon-0" data-fill-palette-color="accent" id="icon-0"><g fill="#edf0f5" data-fill-palette-color="accent"><path d="M87.21 21.166C85.906 10.593 80.642 8.374 76.457 8.374c-4.429 0-8.806 2.474-10.44 3.506-3.709-2.202-8.809-3.318-15.178-3.318-6.419 0-11.549 1.133-15.264 3.37-1.667-1.004-6.214-3.452-10.909-3.452-4.163 0-9.557 1.964-11.611 11.318-0.923 4.201-0.264 7.79 1.958 10.667 4.162 5.385 12.522 6.531 15.174 6.762 1.115 3 2.963 5.312 5.598 6.982-4.115 3.789-19.147 18.656-15.915 30.864 0.972 3.67 2.564 5.806 4.733 6.351 3.02 0.756 5.827-1.979 6.241-2.406 0.516-0.469 1.611-2.058-0.026-6.351-0.914-2.398 2.373-6.872 5.487-10.085-2.077 4.167-5.233 11.984-4.489 19.775-2.282 0.136-6.805 0.73-9.018 3.317-1.126 1.318-1.529 2.936-1.194 4.811l0.172 0.968 31.184 0.08 0.113 0.093 0.077-0.093 17.961 0.046c3.956-0.205 6.977-1.504 8.978-3.86 2.987-3.514 2.523-8.057 2.502-8.257-2.653-22.633-13.228-32.975-16.636-35.765 1.903-1.365 3.408-3.09 4.512-5.201 2.298-0.258 9.695-1.466 13.919-6.555C86.786 29.05 87.736 25.424 87.21 21.166zM24.583 87.206c1.584-1.855 5.392-2.422 7.577-2.521 0.306 1.505 0.775 2.995 1.45 4.444l-9.763-0.025C23.877 88.373 24.122 87.746 24.583 87.206zM80.25 79.729c0.005 0.037 0.381 3.716-1.956 6.466-1.566 1.842-4.024 2.862-7.244 3.031l-15.964-0.041 0.398-0.482-1.211-0.999-1.219 1.476-2.141-0.006 1.126-1.089-1.091-1.128-2.287 2.211-1.715-0.004c2.138-4.988 10.612-4.488 10.703-4.481l0.006-0.088c1.742 1.755 3.942 2.991 6.418 3.547l0.515-2.297c-2.837-0.637-5.246-2.346-6.782-4.813-1.572-2.524-2.05-5.533-1.344-8.472 1.447-6.016 7.457-9.828 13.395-8.493l0.515-2.297c-7.18-1.609-14.454 2.981-16.198 10.24-0.326 1.357-0.44 2.727-0.354 4.073-4.732 2.72-10.182 4.97-11.61 4.198-0.031-0.017-0.058-0.039-0.088-0.057l2.023-0.714-0.523-1.48-2.634 0.93c-0.113-0.232-0.187-0.478-0.239-0.731l2.72-0.96-0.523-1.48-2.127 0.751c0.213-0.737 0.647-1.392 1.268-1.765C53.614 67.86 58.286 52.969 58.48 52.339l-2.251-0.69c-0.044 0.146-4.592 14.652-15.351 21.105-2.389 1.433-3.281 4.806-1.948 7.365 0.51 0.978 1.234 1.727 2.156 2.228 0.512 0.278 1.149 0.4 1.87 0.4 3.235 0 8.165-2.444 11.261-4.18 0.336 1.295 0.867 2.544 1.592 3.708 0.012 0.019 0.026 0.036 0.038 0.055-3.315 0.151-9.783 1.186-11.391 6.827l-8.199-0.021c-5.585-10.142 0.931-23.416 3.097-27.297 0.06-0.107 0.1-0.18 0.12-0.218l0.358-0.691-2.276-2.751-0.912 0.81c-1.036 0.922-10.068 9.159-8.026 14.515 1.041 2.731 0.656 3.682 0.583 3.823L29.17 77.36c-0.094 0.1-0.23 0.231-0.396 0.376l-1.21-2.667-1.43 0.648 1.333 2.938c-0.254 0.14-0.521 0.266-0.793 0.36l-1.315-2.899-1.43 0.648 1.041 2.296c-1.166-0.433-2.142-2.002-2.827-4.591-3.05-11.523 13.383-26.864 15.86-29.094 3.303 1.446 7.544 2.156 12.835 2.156 5.316 0 9.611-0.841 12.957-2.531C65.488 46.264 77.467 55.985 80.25 79.729zM82.58 30.431c-4.28 5.166-12.864 5.775-12.95 5.78l-0.693 0.045-0.297 0.628c-2.67 5.658-8.327 8.294-17.801 8.294-13.882 0-17.272-5.039-18.674-9.43l-0.251-0.785-0.823-0.033c-0.1-0.004-10.018-0.465-14.22-5.91-1.773-2.298-2.284-5.231-1.518-8.717 1.38-6.283 4.513-9.468 9.313-9.468 5.05 0 10.202 3.431 10.254 3.466l0.655 0.442 0.657-0.438c3.364-2.247 8.279-3.387 14.608-3.387 6.29 0 11.185 1.126 14.547 3.346l0.671 0.443 0.657-0.464c0.049-0.035 5.024-3.512 9.742-3.512 4.707 0 7.539 3.609 8.418 10.726C85.317 25.039 84.545 28.059 82.58 30.431z" fill="#edf0f5" data-fill-palette-color="accent"></path><path d="M23.961 13.92c-4.239 0.473-5.454 4.037-5.504 5.856l2.352 0.073c0.014-0.33 0.225-3.234 3.412-3.589 3.301-0.375 5.428 5.223 5.449 5.279l1.107-0.399 1.108-0.398C31.777 20.439 29.158 13.341 23.961 13.92z" fill="#edf0f5" data-fill-palette-color="accent"></path><path d="M74.957 13.92c-5.177-0.589-7.817 6.518-7.926 6.821l2.215 0.797c0.021-0.056 2.125-5.653 5.45-5.279 3.187 0.356 3.398 3.259 3.411 3.582l2.352-0.065C80.411 17.957 79.196 14.393 74.957 13.92z" fill="#edf0f5" data-fill-palette-color="accent"></path><path d="M62.93 25.331c-0.946 0-1.713 0.724-1.713 1.618 0 0.894 0.767 1.618 1.713 1.618 0.946 0 1.713-0.724 1.713-1.618C64.643 26.055 63.876 25.331 62.93 25.331zM62.619 27.391c-0.301 0-0.545-0.316-0.545-0.706 0-0.39 0.244-0.706 0.545-0.706 0.301 0 0.545 0.316 0.545 0.706C63.164 27.075 62.92 27.391 62.619 27.391z" fill="#edf0f5" data-fill-palette-color="accent"></path><path d="M62.931 23.277c-2.118 0-3.841 1.647-3.841 3.672s1.723 3.672 3.841 3.672c2.118 0 3.841-1.647 3.841-3.672S65.049 23.277 62.931 23.277zM62.931 29.051c-1.253 0-2.272-0.943-2.272-2.102s1.019-2.102 2.272-2.102c1.252 0 2.271 0.943 2.271 2.102S64.183 29.051 62.931 29.051z" fill="#edf0f5" data-fill-palette-color="accent"></path><path d="M38.696 25.331c-0.946 0-1.713 0.724-1.713 1.618 0 0.894 0.767 1.618 1.713 1.618 0.946 0 1.713-0.724 1.713-1.618C40.409 26.055 39.642 25.331 38.696 25.331zM38.385 27.391c-0.301 0-0.545-0.316-0.545-0.706 0-0.39 0.244-0.706 0.545-0.706 0.301 0 0.545 0.316 0.545 0.706C38.93 27.075 38.686 27.391 38.385 27.391z" fill="#edf0f5" data-fill-palette-color="accent"></path><path d="M38.696 23.277c-2.118 0-3.841 1.647-3.841 3.672s1.723 3.672 3.841 3.672c2.118 0 3.841-1.647 3.841-3.672S40.814 23.277 38.696 23.277zM38.696 29.051c-1.253 0-2.272-0.943-2.272-2.102s1.019-2.102 2.272-2.102c1.252 0 2.271 0.943 2.271 2.102S39.948 29.051 38.696 29.051z" fill="#edf0f5" data-fill-palette-color="accent"></path><path d="M51.352 37.294c-1.364 0.113-2.731-0.302-3.948-1.199l-0.932 1.264c1.36 1.002 2.882 1.523 4.434 1.523 0.192 0 0.382-0.008 0.574-0.024 1.308-0.108 2.528-0.572 3.628-1.38l-0.93-1.264C53.317 36.846 52.366 37.21 51.352 37.294z" fill="#edf0f5" data-fill-palette-color="accent"></path><path d="M50.931 22.312c-3.257 0-5.922 2.665-5.922 5.922v2.088c0 3.257 2.665 5.922 5.922 5.922 3.257 0 5.922-2.665 5.922-5.922v-2.088C56.853 24.977 54.188 22.312 50.931 22.312z" fill="#edf0f5" data-fill-palette-color="accent"></path></g></svg></g></svg></g><g></g></svg></g></svg></g></svg></g></svg></g><defs></defs></svg><rect width="320" height="360" fill="none" stroke="none" visibility="hidden"></rect></g></svg></g></svg>